<svg width="84" height="23" viewBox="0 0 84 23" fill="none" xmlns="http://www.w3.org/2000/svg">
<path d="M29.65 17.18C28.89 17.18 28.21 17.05 27.61 16.79C27.02 16.53 26.55 16.15 26.2 15.65C25.86 15.15 25.685 14.545 25.675 13.835H27.82C27.83 14.145 27.91 14.425 28.06 14.675C28.21 14.925 28.415 15.125 28.675 15.275C28.945 15.415 29.265 15.485 29.635 15.485C29.955 15.485 30.23 15.435 30.46 15.335C30.7 15.225 30.885 15.075 31.015 14.885C31.145 14.695 31.21 14.47 31.21 14.21C31.21 13.91 31.135 13.66 30.985 13.46C30.845 13.26 30.645 13.09 30.385 12.95C30.135 12.81 29.84 12.685 29.5 12.575C29.17 12.455 28.82 12.33 28.45 12.2C27.62 11.93 26.985 11.57 26.545 11.12C26.115 10.67 25.9 10.075 25.9 9.335C25.9 8.705 26.05 8.165 26.35 7.715C26.66 7.265 27.085 6.92 27.625 6.68C28.165 6.44 28.78 6.32 29.47 6.32C30.18 6.32 30.8 6.445 31.33 6.695C31.87 6.935 32.295 7.285 32.605 7.745C32.925 8.205 33.09 8.745 33.1 9.365H30.94C30.93 9.135 30.86 8.92 30.73 8.72C30.61 8.51 30.44 8.345 30.22 8.225C30 8.095 29.74 8.03 29.44 8.03C29.18 8.02 28.94 8.06 28.72 8.15C28.51 8.24 28.34 8.375 28.21 8.555C28.09 8.725 28.03 8.94 28.03 9.2C28.03 9.45 28.09 9.66 28.21 9.83C28.34 10 28.515 10.15 28.735 10.28C28.955 10.4 29.215 10.515 29.515 10.625C29.815 10.725 30.14 10.83 30.49 10.94C31.01 11.12 31.49 11.335 31.93 11.585C32.37 11.825 32.72 12.14 32.98 12.53C33.24 12.92 33.37 13.435 33.37 14.075C33.37 14.625 33.225 15.135 32.935 15.605C32.645 16.075 32.225 16.455 31.675 16.745C31.135 17.035 30.46 17.18 29.65 17.18ZM35.0427 20.3V9.44H36.8427L37.0677 10.49C37.2277 10.27 37.4177 10.07 37.6377 9.89C37.8577 9.7 38.1177 9.55 38.4177 9.44C38.7277 9.32 39.0877 9.26 39.4977 9.26C40.2077 9.26 40.8327 9.435 41.3727 9.785C41.9127 10.135 42.3377 10.61 42.6477 11.21C42.9677 11.8 43.1277 12.475 43.1277 13.235C43.1277 13.995 42.9677 14.675 42.6477 15.275C42.3277 15.865 41.8977 16.33 41.3577 16.67C40.8177 17.01 40.2027 17.18 39.5127 17.18C38.9527 17.18 38.4677 17.08 38.0577 16.88C37.6577 16.67 37.3277 16.385 37.0677 16.025V20.3H35.0427ZM39.0327 15.41C39.4327 15.41 39.7827 15.32 40.0827 15.14C40.3927 14.96 40.6327 14.705 40.8027 14.375C40.9727 14.045 41.0577 13.665 41.0577 13.235C41.0577 12.805 40.9727 12.425 40.8027 12.095C40.6327 11.755 40.3927 11.495 40.0827 11.315C39.7827 11.125 39.4327 11.03 39.0327 11.03C38.6427 11.03 38.2927 11.125 37.9827 11.315C37.6827 11.495 37.4427 11.75 37.2627 12.08C37.0927 12.41 37.0077 12.79 37.0077 13.22C37.0077 13.65 37.0927 14.035 37.2627 14.375C37.4427 14.705 37.6827 14.96 37.9827 15.14C38.2927 15.32 38.6427 15.41 39.0327 15.41ZM44.8718 17V9.44H46.6718L46.8668 10.835C47.0468 10.505 47.2718 10.225 47.5418 9.995C47.8218 9.765 48.1368 9.585 48.4868 9.455C48.8468 9.325 49.2418 9.26 49.6718 9.26V11.405H48.9818C48.6818 11.405 48.4018 11.44 48.1418 11.51C47.8918 11.58 47.6718 11.695 47.4818 11.855C47.2918 12.005 47.1468 12.215 47.0468 12.485C46.9468 12.755 46.8968 13.095 46.8968 13.505V17H44.8718ZM51.0545 17V9.44H53.0795V17H51.0545ZM52.0745 8.405C51.7145 8.405 51.4145 8.3 51.1745 8.09C50.9445 7.87 50.8295 7.595 50.8295 7.265C50.8295 6.935 50.9445 6.665 51.1745 6.455C51.4145 6.235 51.7145 6.125 52.0745 6.125C52.4445 6.125 52.7445 6.235 52.9745 6.455C53.2145 6.665 53.3345 6.935 53.3345 7.265C53.3345 7.595 53.2145 7.87 52.9745 8.09C52.7445 8.3 52.4445 8.405 52.0745 8.405ZM55.1257 17V9.44H56.9107L57.0607 10.67C57.2907 10.25 57.6157 9.91 58.0357 9.65C58.4657 9.39 58.9757 9.26 59.5657 9.26C60.1957 9.26 60.7257 9.39 61.1557 9.65C61.5857 9.91 61.9107 10.29 62.1307 10.79C62.3607 11.29 62.4757 11.905 62.4757 12.635V17H60.4657V12.83C60.4657 12.23 60.3357 11.77 60.0757 11.45C59.8257 11.13 59.4357 10.97 58.9057 10.97C58.5657 10.97 58.2607 11.05 57.9907 11.21C57.7307 11.37 57.5257 11.6 57.3757 11.9C57.2257 12.19 57.1507 12.545 57.1507 12.965V17H55.1257ZM67.7886 17C67.2586 17 66.7936 16.92 66.3936 16.76C66.0036 16.59 65.6986 16.315 65.4786 15.935C65.2586 15.545 65.1486 15.015 65.1486 14.345V11.135H63.8586V9.44H65.1486L65.3736 7.385H67.1736V9.44H69.1686V11.135H67.1736V14.375C67.1736 14.715 67.2486 14.95 67.3986 15.08C67.5486 15.21 67.8036 15.275 68.1636 15.275H69.1536V17H67.7886ZM70.8728 17V6.2H72.8978V17H70.8728ZM75.8318 20.3L77.6618 16.16H77.2118L74.1818 9.44H76.3868L78.5468 14.315L80.4968 9.44H82.6418L77.9768 20.3H75.8318Z" fill="black"/>
<path d="M23 11.5C23 17.8513 17.8513 23 11.5 23C5.14873 23 0 17.8513 0 11.5C0 5.14873 5.14873 0 11.5 0C17.8513 0 23 5.14873 23 11.5Z" fill="#2563EB"/>
<path d="M17.9232 14.0663C18.0087 14.2376 18.0227 14.4358 17.9622 14.6174C17.9017 14.799 17.7715 14.9492 17.6003 15.0349L11.8223 17.9238C11.7221 17.9739 11.6116 18 11.4995 18C11.3874 18 11.2769 17.9739 11.1766 17.9238L5.39863 15.0349C5.23343 14.9458 5.1094 14.7959 5.05281 14.6169C4.99622 14.438 5.01151 14.244 5.09544 14.0762C5.17938 13.9083 5.32537 13.7797 5.50249 13.7176C5.6796 13.6555 5.87394 13.6648 6.04433 13.7435L11.4995 16.4692L16.9554 13.7428C17.1266 13.6572 17.3248 13.6432 17.5065 13.7037C17.6881 13.7643 17.8382 13.8944 17.9239 14.0656M17.9239 11.1766C18.0094 11.3479 18.0235 11.5461 17.9629 11.7277C17.9024 11.9093 17.7722 12.0595 17.6011 12.1452L11.8231 15.0341C11.7228 15.0842 11.6123 15.1103 11.5002 15.1103C11.3881 15.1103 11.2776 15.0842 11.1774 15.0341L5.39936 12.1452C5.23416 12.0561 5.11012 11.9062 5.05353 11.7272C4.99694 11.5483 5.01223 11.3543 5.09617 11.1865C5.1801 11.0186 5.32609 10.89 5.50321 10.8279C5.68033 10.7658 5.87466 10.7751 6.04505 10.8538L11.4995 13.5803L16.9554 10.8538C17.1266 10.7683 17.3248 10.7542 17.5065 10.8148C17.6881 10.8753 17.8382 11.0054 17.9239 11.1766ZM11.5053 5C11.5322 5 11.5589 5.00169 11.5854 5.00506L11.6656 5.0195L11.7277 5.03683L11.7364 5.04117L11.745 5.04261L11.766 5.05272L11.8021 5.06645L11.8137 5.07295L11.8223 5.07656L17.6003 7.96553C17.7201 8.02558 17.8209 8.11777 17.8913 8.23181C17.9617 8.34584 17.999 8.47721 17.999 8.61122C17.999 8.74523 17.9617 8.8766 17.8913 8.99063C17.8209 9.10466 17.7201 9.19686 17.6003 9.2569L11.8223 12.1459C11.7221 12.196 11.6116 12.2221 11.4995 12.2221C11.3874 12.2221 11.2769 12.196 11.1766 12.1459L5.39863 9.2569C5.27883 9.19686 5.17809 9.10466 5.10769 8.99063C5.03729 8.8766 5 8.74523 5 8.61122C5 8.47721 5.03729 8.34584 5.10769 8.23181C5.17809 8.11777 5.27883 8.02558 5.39863 7.96553L11.1766 5.07656L11.1846 5.07295L11.1976 5.06572L11.2539 5.04261L11.2619 5.04117L11.2713 5.03683L11.3334 5.0195L11.4128 5.00506L11.4533 5.00144L11.5053 5Z" fill="white"/>
</svg>
