<svg width="23" height="23" viewBox="0 0 23 23" fill="none" xmlns="http://www.w3.org/2000/svg">
<path d="M23 11.5C23 17.8513 17.8513 23 11.5 23C5.14873 23 0 17.8513 0 11.5C0 5.14873 5.14873 0 11.5 0C17.8513 0 23 5.14873 23 11.5Z" fill="#2563EB"/>
<path d="M17.9232 14.0663C18.0087 14.2376 18.0227 14.4358 17.9622 14.6174C17.9017 14.799 17.7715 14.9492 17.6003 15.0349L11.8223 17.9238C11.7221 17.9739 11.6116 18 11.4995 18C11.3874 18 11.2769 17.9739 11.1766 17.9238L5.39863 15.0349C5.23343 14.9458 5.1094 14.7959 5.05281 14.6169C4.99622 14.438 5.01151 14.244 5.09544 14.0762C5.17938 13.9083 5.32537 13.7797 5.50249 13.7176C5.6796 13.6555 5.87394 13.6648 6.04433 13.7435L11.4995 16.4692L16.9554 13.7428C17.1266 13.6572 17.3248 13.6432 17.5065 13.7037C17.6881 13.7643 17.8382 13.8944 17.9239 14.0656M17.9239 11.1766C18.0094 11.3479 18.0235 11.5461 17.9629 11.7277C17.9024 11.9093 17.7722 12.0595 17.6011 12.1452L11.8231 15.0341C11.7228 15.0842 11.6123 15.1103 11.5002 15.1103C11.3881 15.1103 11.2776 15.0842 11.1774 15.0341L5.39936 12.1452C5.23416 12.0561 5.11012 11.9062 5.05353 11.7272C4.99694 11.5483 5.01223 11.3543 5.09617 11.1865C5.1801 11.0186 5.32609 10.89 5.50321 10.8279C5.68033 10.7658 5.87466 10.7751 6.04505 10.8538L11.4995 13.5803L16.9554 10.8538C17.1266 10.7683 17.3248 10.7542 17.5065 10.8148C17.6881 10.8753 17.8382 11.0054 17.9239 11.1766ZM11.5053 5C11.5322 5 11.5589 5.00169 11.5854 5.00506L11.6656 5.0195L11.7277 5.03683L11.7364 5.04117L11.745 5.04261L11.766 5.05272L11.8021 5.06645L11.8137 5.07295L11.8223 5.07656L17.6003 7.96553C17.7201 8.02558 17.8209 8.11777 17.8913 8.23181C17.9617 8.34584 17.999 8.47721 17.999 8.61122C17.999 8.74523 17.9617 8.8766 17.8913 8.99063C17.8209 9.10466 17.7201 9.19686 17.6003 9.2569L11.8223 12.1459C11.7221 12.196 11.6116 12.2221 11.4995 12.2221C11.3874 12.2221 11.2769 12.196 11.1766 12.1459L5.39863 9.2569C5.27883 9.19686 5.17809 9.10466 5.10769 8.99063C5.03729 8.8766 5 8.74523 5 8.61122C5 8.47721 5.03729 8.34584 5.10769 8.23181C5.17809 8.11777 5.27883 8.02558 5.39863 7.96553L11.1766 5.07656L11.1846 5.07295L11.1976 5.06572L11.2539 5.04261L11.2619 5.04117L11.2713 5.03683L11.3334 5.0195L11.4128 5.00506L11.4533 5.00144L11.5053 5Z" fill="white"/>
</svg>
